<?xml version="1.0" encoding="iso-8859-1"?>
<!-- Generator: Adobe Illustrator 19.0.0, SVG Export Plug-In . SVG Version: 6.00 Build 0)  -->
<svg version="1.1" id="Layer_1" xmlns="http://www.w3.org/2000/svg" xmlns:xlink="http://www.w3.org/1999/xlink" x="0px" y="0px"
	 viewBox="0 0 512 512" style="enable-background:new 0 0 512 512;" xml:space="preserve">
<g transform="translate(1 1)">
	<g>
		<g>
			<path d="M24.6,122.733h341.333c14.507,0,25.6-11.093,25.6-25.6V28.867c0-14.507-11.093-25.6-25.6-25.6H24.6
				C10.093,3.267-1,14.36-1,28.867v68.267C-1,111.64,10.093,122.733,24.6,122.733z M16.067,28.867c0-5.12,3.413-8.533,8.533-8.533
				h341.333c5.12,0,8.533,3.413,8.533,8.533v68.267c0,5.12-3.413,8.533-8.533,8.533H24.6c-5.12,0-8.533-3.413-8.533-8.533V28.867z"
				/>
			<path d="M24.6,250.733h341.333c14.507,0,25.6-11.093,25.6-25.6v-68.267c0-14.507-11.093-25.6-25.6-25.6H24.6
				c-14.507,0-25.6,11.093-25.6,25.6v68.267C-1,239.64,10.093,250.733,24.6,250.733z M16.067,156.867
				c0-5.12,3.413-8.533,8.533-8.533h341.333c5.12,0,8.533,3.413,8.533,8.533v68.267c0,5.12-3.413,8.533-8.533,8.533H24.6
				c-5.12,0-8.533-3.413-8.533-8.533V156.867z"/>
			<path d="M485.4,259.267H144.067c-14.507,0-25.6,11.093-25.6,25.6v25.6h-51.2c-5.12,0-8.533,3.413-8.533,8.533
				s3.413,8.533,8.533,8.533h51.2v25.6c0,14.507,11.093,25.6,25.6,25.6H485.4c14.507,0,25.6-11.093,25.6-25.6v-68.267
				C511,270.36,499.907,259.267,485.4,259.267z M493.933,353.133c0,5.12-3.413,8.533-8.533,8.533H144.067
				c-5.12,0-8.533-3.413-8.533-8.533v-25.6h39.253l-11.093,11.093c-3.413,3.413-3.413,8.533,0,11.947
				c1.707,1.707,3.413,2.56,5.973,2.56s4.267-0.853,5.973-2.56l24.14-24.14c2.509-1.395,4.02-4.034,4.02-7.434
				s-1.511-6.038-4.02-7.434l-24.14-24.14c-3.413-3.413-8.533-3.413-11.947,0c-3.413,3.413-3.413,8.533,0,11.947l11.093,11.093
				h-39.253v-25.6c0-5.12,3.413-8.533,8.533-8.533H485.4c5.12,0,8.533,3.413,8.533,8.533V353.133z"/>
			<path d="M365.933,387.267H24.6c-14.507,0-25.6,11.093-25.6,25.6v68.267c0,14.507,11.093,25.6,25.6,25.6h341.333
				c14.507,0,25.6-11.093,25.6-25.6v-68.267C391.533,398.36,380.44,387.267,365.933,387.267z M374.467,481.133
				c0,5.12-3.413,8.533-8.533,8.533H24.6c-5.12,0-8.533-3.413-8.533-8.533v-68.267c0-5.12,3.413-8.533,8.533-8.533h341.333
				c5.12,0,8.533,3.413,8.533,8.533V481.133z"/>
			<path d="M451.267,310.467h-204.8c-5.12,0-8.533,3.413-8.533,8.533s3.413,8.533,8.533,8.533h204.8c5.12,0,8.533-3.413,8.533-8.533
				S456.387,310.467,451.267,310.467z"/>
			<path d="M127,199.533h204.8c5.12,0,8.533-3.413,8.533-8.533s-3.413-8.533-8.533-8.533H127c-5.12,0-8.533,3.413-8.533,8.533
				S121.88,199.533,127,199.533z"/>
			<path d="M67.267,208.067c9.387,0,17.067-7.68,17.067-17.067s-7.68-17.067-17.067-17.067S50.2,181.613,50.2,191
				S57.88,208.067,67.267,208.067z"/>
			<path d="M127,71.533h204.8c5.12,0,8.533-3.413,8.533-8.533s-3.413-8.533-8.533-8.533H127c-5.12,0-8.533,3.413-8.533,8.533
				S121.88,71.533,127,71.533z"/>
			<path d="M67.267,80.067c9.387,0,17.067-7.68,17.067-17.067s-7.68-17.067-17.067-17.067S50.2,53.613,50.2,63
				S57.88,80.067,67.267,80.067z"/>
			<path d="M331.8,438.467H127c-5.12,0-8.533,3.413-8.533,8.533s3.413,8.533,8.533,8.533h204.8c5.12,0,8.533-3.413,8.533-8.533
				S336.92,438.467,331.8,438.467z"/>
			<path d="M67.267,429.933c-9.387,0-17.067,7.68-17.067,17.067s7.68,17.067,17.067,17.067s17.067-7.68,17.067-17.067
				S76.653,429.933,67.267,429.933z"/>
		</g>
	</g>
</g>
<g>
</g>
<g>
</g>
<g>
</g>
<g>
</g>
<g>
</g>
<g>
</g>
<g>
</g>
<g>
</g>
<g>
</g>
<g>
</g>
<g>
</g>
<g>
</g>
<g>
</g>
<g>
</g>
<g>
</g>
</svg>
